<?xml version="1.0" encoding="UTF-8"?><!DOCTYPE svg  PUBLIC '-//W3C//DTD SVG 1.1//EN'  'http://www.w3.org/Graphics/SVG/1.1/DTD/svg11.dtd'><svg enable-background="new 0 0 58 58" version="1.1" viewBox="0 0 58 58" xml:space="preserve" xmlns="http://www.w3.org/2000/svg"><polygon points="46.5 14 32.5 0 1.5 0 1.5 58 46.5 58" fill="#EFEBDE"/><g fill="#D5D0BB"><path d="m11.5 23h25c0.552 0 1-0.447 1-1s-0.448-1-1-1h-25c-0.552 0-1 0.447-1 1s0.448 1 1 1z"/><path d="m11.5 15h10c0.552 0 1-0.447 1-1s-0.448-1-1-1h-10c-0.552 0-1 0.447-1 1s0.448 1 1 1z"/><path d="m36.5 29h-25c-0.552 0-1 0.447-1 1s0.448 1 1 1h25c0.552 0 1-0.447 1-1s-0.448-1-1-1z"/><path d="m36.5 37h-25c-0.552 0-1 0.447-1 1s0.448 1 1 1h25c0.552 0 1-0.447 1-1s-0.448-1-1-1z"/><path d="m36.5 45h-25c-0.552 0-1 0.447-1 1s0.448 1 1 1h25c0.552 0 1-0.447 1-1s-0.448-1-1-1z"/></g><polygon points="32.5 0 32.5 14 46.5 14" fill="#D5D0BB"/><circle cx="44.5" cy="46" r="12" fill="#71C386"/><path d="m50.5 45h-5v-5c0-0.552-0.448-1-1-1s-1 0.448-1 1v5h-5c-0.552 0-1 0.448-1 1s0.448 1 1 1h5v5c0 0.552 0.448 1 1 1s1-0.448 1-1v-5h5c0.552 0 1-0.448 1-1s-0.448-1-1-1z" fill="#fff"/></svg>