<svg id="Layer_1" enable-background="new 0 0 510.022 510.022" height="512" viewBox="0 0 510.022 510.022" width="512" xmlns="http://www.w3.org/2000/svg"><g id="XMLID_957_"><path id="XMLID_1014_" d="m149.806 297.02-57.304 57.089 7.86 27.861 23.811 3.81 40.042-20.043 13.538-33.538z" fill="#ffda2d"/><path id="XMLID_1011_" d="m177.753 332.199-53.58 53.581 3.02 23.02 28.948 8.949 57.428-57.212z" fill="#fdbf00"/><path id="XMLID_992_" d="m92.502 354.109-79.344 79.046c-17.544 17.545-17.544 46.094.001 63.639l65.14-45.141 45.874-65.873z" fill="#d58678"/><path id="XMLID_978_" d="m13.159 496.794c17.521 17.522 46.068 17.57 63.619.021l79.363-79.065-31.969-31.969z" fill="#b95d4c"/><path id="XMLID_975_" d="m177.753 56.976c-76.053 76.053-76.064 199.16 0 275.224l152.236-122.188 122.988-153.036c-75.879-75.88-199.345-75.88-275.224 0z" fill="#6058ad"/><path id="XMLID_972_" d="m452.977 56.976-275.224 275.223c76.053 76.054 199.158 76.066 275.224 0 76.054-76.051 76.066-199.159 0-275.223z" fill="#453f81"/><path id="XMLID_968_" d="m220.179 99.401c-52.485 52.486-52.485 137.887 0 190.372l109.81-79.763 80.561-110.609c-52.486-52.484-137.885-52.484-190.371 0z" fill="#e9f1ff"/><path id="XMLID_964_" d="m410.55 99.401-190.371 190.373c52.609 52.609 137.76 52.611 190.371 0 52.609-52.609 52.614-137.759 0-190.373z" fill="#d5def0"/><path id="XMLID_961_" d="m330.767 134.237h-30v45h-45v30h44.949l25.75-5.75 4.301-24.301z" fill="#ff7b4a"/><path id="XMLID_958_" d="m330.767 179.186-30.051 30.051h.051v45h30v-45h45v-30h-45z" fill="#ff435b"/></g></svg>