<svg id="Layer_1" enable-background="new 0 0 510.022 510.022" height="512" viewBox="0 0 510.022 510.022" width="512" xmlns="http://www.w3.org/2000/svg"><g id="XMLID_146_"><path id="XMLID_1163_" d="m149.806 297.02-57.304 57.09 7.86 27.86 23.81 3.811 40.043-20.043 13.538-33.539z" fill="#ffda2d"/><path id="XMLID_1168_" d="m177.753 332.199-53.581 53.582 3.021 23.019 28.948 8.949 57.428-57.212z" fill="#fdbf00"/><path id="XMLID_1169_" d="m92.502 354.11-79.344 79.046c-17.544 17.545-17.544 46.094.001 63.639l65.14-45.141 45.874-65.873z" fill="#d58678"/><path id="XMLID_1170_" d="m13.159 496.794c17.521 17.522 46.068 17.57 63.619.021l79.363-79.065-31.969-31.969z" fill="#b95d4c"/><path id="XMLID_1162_" d="m177.753 56.976c-76.054 76.053-76.065 199.16 0 275.224l152.235-122.188 122.989-153.036c-75.879-75.88-199.345-75.88-275.224 0z" fill="#6058ad"/><path id="XMLID_1167_" d="m452.977 56.976-275.224 275.223c76.053 76.054 199.158 76.065 275.224 0 76.057-76.053 76.064-199.161 0-275.223z" fill="#453f81"/><path id="XMLID_1166_" d="m220.179 99.402c-52.485 52.486-52.485 137.887 0 190.372l109.81-79.763 80.561-110.609c-52.486-52.485-137.885-52.485-190.371 0z" fill="#e9f1ff"/><path id="XMLID_1161_" d="m410.55 99.402-190.371 190.372c52.607 52.607 137.758 52.613 190.371 0 52.609-52.609 52.614-137.759 0-190.372z" fill="#d5def0"/><path id="XMLID_1160_" d="m255.767 179.238v30h44.948l29.274-14.274.726-15.726z" fill="#ff7b4a"/><path id="XMLID_1157_" d="m300.715 209.238h75.052v-30h-45.052z" fill="#ff435b"/></g></svg>